<?xml version="1.0" encoding="utf-8"?>
<!-- Generator: Adobe Illustrator 23.0.0, SVG Export Plug-In . SVG Version: 6.00 Build 0)  -->
<svg version="1.1" id="Capa_1" xmlns="http://www.w3.org/2000/svg" xmlns:xlink="http://www.w3.org/1999/xlink" x="0px" y="0px"
	 viewBox="0 0 105 149" style="enable-background:new 0 0 105 149;" xml:space="preserve">
<style type="text/css">
	.relleno{fill:#004463;}
</style>
<g>
<path class="relleno" d="M67.5,0C56.2,0,46.9,9.2,46.9,20.6v27c-1-0.1-1.9-0.1-2.9-0.1c-24.3,0-44,19.7-44,44s19.7,44,44,44
	c3.8,0,6.9-3.1,6.9-6.9c0-3.8-3.1-6.9-6.9-6.9c-16.7,0-30.3-13.6-30.3-30.3S27.3,61.1,44,61.1c2.7,0,5.4,0.4,8,1.1l8.6,2.3v-44
	c0-3.8,3.1-6.9,6.9-6.9c3.8,0,6.9,3.1,6.9,6.9v73.7c0,3.8,3.1,6.9,6.9,6.9s6.9-3.1,6.9-6.9V20.5C88.1,9.2,78.9,0,67.5,0z M49.4,86.1
	c-0.7-0.7-1.5-1.2-2.4-1.6c-0.9-0.4-1.9-0.6-2.9-0.6s-2,0.2-2.9,0.6c-0.9,0.4-1.7,0.9-2.4,1.6c-0.7,0.7-1.2,1.5-1.6,2.4
	c-0.4,0.9-0.6,1.9-0.6,3c0,1,0.2,2,0.6,2.9c0.4,0.9,0.9,1.7,1.6,2.4c0.7,0.7,1.5,1.2,2.4,1.6c0.9,0.4,1.9,0.6,2.9,0.6s2-0.2,2.9-0.6
	c0.9-0.4,1.7-0.9,2.4-1.6c0.7-0.7,1.2-1.5,1.6-2.4c0.4-0.9,0.6-1.9,0.6-2.9c0-1.1-0.2-2-0.6-3C50.6,87.6,50.1,86.8,49.4,86.1z
	 M37.36,44.06c1.85-0.26,3.73-0.43,5.64-0.47V20.6c0-8.43,4.27-15.88,10.75-20.31c-3.45-0.57-7.09-0.27-10.59,1.06
	C32.54,5.38,27.19,17.31,31.23,27.92L37.36,44.06z"/>
	<animate
      id="frame1"
      attributeName="display"
      values="inline;inline;none;inline"
      keyTimes="0;0.33;0.98;1"
      dur="10s"
      begin="0s"
      repeatCount="indefinite" />
</g>
<g>
<path class="relleno" d="M44.1,82.4c-5,0-9,4-9,9c0,0.8,0.7,1.5,1.5,1.5s1.5-0.7,1.5-1.5c0-3.3,2.7-6,6-6s6,2.7,6,6
	c0,0.8,0.7,1.5,1.5,1.5s1.5-0.7,1.5-1.5C53.1,86.5,49.1,82.4,44.1,82.4z M67.5,0C56.2,0,46.9,9.2,46.9,20.6v27
	c-1-0.1-1.9-0.1-2.9-0.1c-24.3,0-44,19.7-44,44s19.7,44,44,44c3.8,0,6.9-3.1,6.9-6.9c0-3.8-3.1-6.9-6.9-6.9
	c-16.7,0-30.3-13.6-30.3-30.3S27.3,61.1,44,61.1c2.7,0,5.4,0.4,8,1.1l8.6,2.3v-44c0-3.8,3.1-6.9,6.9-6.9s6.9,3.1,6.9,6.9v73.7
	c0,3.8,3.1,6.9,6.9,6.9s6.9-3.1,6.9-6.9V20.5C88.1,9.2,78.9,0,67.5,0z M37.36,44.06c1.85-0.26,3.73-0.43,5.64-0.47V20.6
	c0-8.43,4.27-15.88,10.75-20.31c-3.45-0.57-7.09-0.27-10.59,1.06C32.54,5.38,27.19,17.31,31.23,27.92L37.36,44.06z"/>
	<animate
      id="frame2"
      attributeName="display"
      values="none;none;inline;none"
      keyTimes="0;0.33;0.98;1"
      dur="10s"
      begin="0s"
      repeatCount="indefinite" />
</g>
</svg>
