<svg width="359" height="158" viewBox="0 0 359 158" fill="none" xmlns="http://www.w3.org/2000/svg">
<path fill-rule="evenodd" clip-rule="evenodd" d="M113.9 56.7999C113.9 55.5999 114.133 54.4666 114.6 53.3999C115.067 52.3332 115.7 51.3999 116.5 50.5999C117.3 49.7999 118.233 49.1666 119.3 48.6999C120.367 48.2999 121.5 48.0999 122.7 48.0999C123.833 48.0999 124.933 48.2999 126 48.6999C127.067 49.1666 128 49.7999 128.8 50.5999C129.6 51.3999 130.233 52.3332 130.7 53.3999C131.167 54.4666 131.4 55.5999 131.4 56.7999C131.4 57.9999 131.167 59.1332 130.7 60.1999C130.233 61.1999 129.6 62.0999 128.8 62.8999C128 63.6999 127.067 64.3332 126 64.7999C124.933 65.2666 123.833 65.4999 122.7 65.4999C121.5 65.4999 120.367 65.2666 119.3 64.7999C118.233 64.3332 117.3 63.6999 116.5 62.8999C115.7 62.0999 115.067 61.1999 114.6 60.1999C114.133 59.1332 113.9 57.9999 113.9 56.7999ZM130.6 133.2C130.6 134.267 130.4 135.267 130 136.2C129.6 137.2 129.033 138.067 128.3 138.8C127.633 139.467 126.8 140 125.8 140.4C124.867 140.867 123.833 141.1 122.7 141.1C121.633 141.1 120.633 140.867 119.7 140.4C118.7 140 117.833 139.467 117.1 138.8C116.367 138.067 115.8 137.2 115.4 136.2C114.933 135.267 114.7 134.267 114.7 133.2V80.8999C114.7 79.8332 114.933 78.8332 115.4 77.8999C115.867 76.8999 116.467 76.0666 117.2 75.3999C117.933 74.6666 118.767 74.0666 119.7 73.5999C120.7 73.1999 121.767 72.9999 122.9 72.9999C124.033 72.9999 125.033 73.1999 125.9 73.5999C126.833 74.0666 127.667 74.6666 128.4 75.3999C129.133 76.0666 129.667 76.8999 130 77.8999C130.4 78.8332 130.6 79.8332 130.6 80.8999V133.2ZM341.5 56.8999C341.5 55.6999 341.733 54.5332 342.2 53.3999C342.667 52.3332 343.3 51.4332 344.1 50.6999C344.833 49.8999 345.767 49.2666 346.9 48.7999C347.967 48.3332 349.067 48.0999 350.2 48.0999C351.4 48.0999 352.533 48.3332 353.6 48.7999C354.667 49.2666 355.6 49.8999 356.4 50.6999C357.2 51.4332 357.833 52.3332 358.3 53.3999C358.767 54.5332 359 55.6999 359 56.8999C359 58.0332 358.767 59.1332 358.3 60.1999C357.833 61.2666 357.2 62.1999 356.4 62.9999C355.6 63.7332 354.667 64.3332 353.6 64.7999C352.533 65.2666 351.4 65.4999 350.2 65.4999C349.067 65.4999 347.967 65.2666 346.9 64.7999C345.767 64.3332 344.833 63.7332 344.1 62.9999C343.3 62.1999 342.667 61.2666 342.2 60.1999C341.733 59.1332 341.5 58.0332 341.5 56.8999ZM358.2 133.2C358.2 134.267 358 135.3 357.6 136.3C357.2 137.3 356.633 138.133 355.9 138.8C355.167 139.533 354.333 140.1 353.4 140.5C352.467 140.9 351.433 141.1 350.3 141.1C349.233 141.1 348.2 140.9 347.2 140.5C346.267 140.1 345.433 139.533 344.7 138.8C343.967 138.133 343.367 137.3 342.9 136.3C342.5 135.3 342.3 134.267 342.3 133.2V80.9999C342.3 79.9332 342.533 78.8999 343 77.8999C343.4 76.9666 343.967 76.1332 344.7 75.3999C345.433 74.6666 346.3 74.0999 347.3 73.6999C348.3 73.2999 349.333 73.0999 350.4 73.0999C351.533 73.0999 352.567 73.2999 353.5 73.6999C354.433 74.0999 355.267 74.6666 356 75.3999C356.667 76.1332 357.2 76.9666 357.6 77.8999C358 78.8999 358.2 79.9332 358.2 80.9999V133.2ZM142.4 107C142.4 102.2 143.333 97.6999 145.2 93.4999C147.067 89.2332 149.567 85.5332 152.7 82.3999C155.9 79.1999 159.6 76.6999 163.8 74.8999C168 73.0332 172.5 72.0999 177.3 72.0999C182.167 72.0999 186.7 73.0332 190.9 74.8999C195.167 76.6999 198.867 79.1999 202 82.3999C205.133 85.5332 207.6 89.2332 209.4 93.4999C211.2 97.6999 212.1 102.2 212.1 107C212.1 111.8 211.2 116.333 209.4 120.6C207.6 124.8 205.133 128.5 202 131.7C198.867 134.9 195.167 137.4 190.9 139.2C186.7 141 182.167 141.9 177.3 141.9C172.5 141.9 168 141 163.8 139.2C159.6 137.4 155.9 134.9 152.7 131.7C149.567 128.5 147.067 124.8 145.2 120.6C143.333 116.333 142.4 111.8 142.4 107ZM158.3 107C158.3 109.6 158.8 112.067 159.8 114.4C160.8 116.733 162.167 118.767 163.9 120.5C165.633 122.233 167.633 123.6 169.9 124.6C172.233 125.6 174.7 126.1 177.3 126.1C179.967 126.1 182.433 125.6 184.7 124.6C187.033 123.6 189.067 122.233 190.8 120.5C192.467 118.767 193.8 116.733 194.8 114.4C195.8 112.067 196.3 109.6 196.3 107C196.3 104.4 195.8 101.933 194.8 99.5999C193.8 97.2666 192.467 95.2666 190.8 93.5999C189.067 91.8666 187.033 90.4999 184.7 89.4999C182.433 88.4999 179.967 87.9999 177.3 87.9999C174.7 87.9999 172.267 88.4999 170 89.4999C167.667 90.4999 165.633 91.8666 163.9 93.5999C162.167 95.2666 160.8 97.2666 159.8 99.5999C158.8 101.933 158.3 104.4 158.3 107ZM237.6 133.2C237.6 134.267 237.4 135.3 237 136.3C236.6 137.3 236.067 138.133 235.4 138.8C234.667 139.467 233.833 140 232.9 140.4C231.967 140.867 230.967 141.1 229.9 141.1C228.767 141.1 227.7 140.867 226.7 140.4C225.7 140 224.833 139.467 224.1 138.8C223.367 138.133 222.8 137.3 222.4 136.3C221.933 135.3 221.7 134.267 221.7 133.2V109.6C221.7 104.6 222.667 99.8666 224.6 95.3999C226.533 90.9332 229.167 87.0666 232.5 83.7999C235.833 80.4666 239.7 77.8332 244.1 75.8999C248.567 73.9666 253.267 72.9999 258.2 72.9999H258.4C261 72.9999 263.033 73.7332 264.5 75.1999C265.967 76.7332 266.7 78.6332 266.7 80.8999C266.7 82.0332 266.467 83.0999 266 84.0999C265.533 85.0332 264.933 85.8666 264.2 86.5999C263.467 87.2666 262.6 87.8332 261.6 88.2999C260.6 88.6999 259.533 88.8999 258.4 88.8999H258.2C255.467 88.8999 252.833 89.4332 250.3 90.4999C247.767 91.5666 245.6 93.0332 243.8 94.8999C241.933 96.7666 240.433 98.9332 239.3 101.4C238.167 103.867 237.6 106.533 237.6 109.4V133.2ZM301.2 115.6L318.4 77.7999C319.067 76.2666 320.067 75.0666 321.4 74.1999C322.667 73.3332 324.067 72.8999 325.6 72.8999C326.733 72.8999 327.833 73.1666 328.9 73.6999C329.9 74.0999 330.733 74.6999 331.4 75.4999C332.133 76.2999 332.7 77.1666 333.1 78.0999C333.433 79.0332 333.6 80.0332 333.6 81.0999C333.6 82.2332 333.367 83.2999 332.9 84.2999L308.5 136.2C307.7 137.8 306.633 138.967 305.3 139.7C303.967 140.5 302.733 140.933 301.6 141C299.733 141 298.133 140.567 296.8 139.7C295.533 138.767 294.567 137.6 293.9 136.2L269.4 84.1999C268.933 83.1999 268.7 82.1666 268.7 81.0999C268.7 80.0332 268.9 78.9999 269.3 77.9999C269.633 77.0666 270.167 76.1999 270.9 75.3999C271.567 74.6666 272.4 74.0666 273.4 73.5999C273.933 73.3332 274.467 73.1666 275 73.0999C275.533 72.9666 276.067 72.8999 276.6 72.8999C278.133 72.8999 279.567 73.3332 280.9 74.1999C282.167 74.9999 283.167 76.1666 283.9 77.6999L301.2 115.6ZM37.1 33.1999C32.4 20.8999 38.6 7.1999 50.9 2.4999C54.9 0.899901 59.1 0.599904 63.1 1.2999C55.6 6.3999 50.7 14.9999 50.7 24.6999V51.2999C48.5 51.3666 46.3334 51.5666 44.2 51.8999L37.1 33.1999ZM87 110.1V24.6999C87 20.2999 83.5 16.7999 79.1 16.7999C74.7 16.7999 71.2 20.2999 71.2 24.6999V75.6999L61.1 72.9999C58.1 72.1999 55 71.7999 51.9 71.7999C32.6 71.7999 16.8 87.4999 16.8 106.9C16.8 126.3 32.6 142 51.9 142C56.3 142 59.9 145.6 59.9 149.9C59.9 154.3 56.3 157.9 51.9 157.9C23.8 157.9 0.900024 135 0.900024 106.9C0.900024 78.7999 23.8 55.8999 51.9 55.8999C53.0334 55.8999 54.1667 55.9332 55.3 55.9999V24.6999C55.3 11.5999 66 0.899902 79.1 0.899902C92.2 0.899902 102.9 11.5999 102.9 24.6999V110.1C102.9 114.5 99.4 118 95 118C90.6 118 87 114.5 87 110.1ZM43.2 107C43.2 105.733 43.4334 104.567 43.9 103.5C44.3667 102.433 45 101.5 45.8 100.7C46.5334 99.9666 47.4334 99.3666 48.5 98.8999C49.5667 98.4332 50.7 98.1999 51.9 98.1999C53.1 98.1999 54.2334 98.4332 55.3 98.8999C56.3667 99.3666 57.3 99.9666 58.1 100.7C58.9 101.5 59.5334 102.433 60 103.5C60.4667 104.567 60.7 105.733 60.7 107C60.7 108.133 60.4667 109.233 60 110.3C59.5334 111.367 58.9 112.267 58.1 113C57.3 113.8 56.3667 114.433 55.3 114.9C54.2334 115.367 53.1 115.6 51.9 115.6C50.7 115.6 49.5667 115.367 48.5 114.9C47.4334 114.433 46.5334 113.8 45.8 113C45 112.267 44.3667 111.367 43.9 110.3C43.4334 109.233 43.2 108.133 43.2 107Z" fill="white"/>
</svg>
