<svg width="352" height="287" viewBox="0 0 352 287" fill="none" xmlns="http://www.w3.org/2000/svg">
<path fill-rule="evenodd" clip-rule="evenodd" d="M74.3 249.231C74.2333 254.298 73.2 259.064 71.2 263.531C69.2667 267.998 66.6 271.898 63.2 275.231C59.8667 278.564 55.9667 281.198 51.5 283.131C46.9667 285.064 42.1667 286.031 37.1 286.031C31.9667 286.031 27.1333 285.064 22.6 283.131C18.1333 281.198 14.2333 278.531 10.9 275.131C7.49999 271.798 4.83333 267.864 2.89999 263.331C0.966661 258.798 0 253.998 0 248.931C0 243.798 0.966661 238.964 2.89999 234.431C4.83333 229.964 7.49999 226.031 10.9 222.631C14.2333 219.298 18.1333 216.664 22.6 214.731C27.1333 212.798 31.9667 211.831 37.1 211.831C40.8333 211.831 44.4 212.364 47.8 213.431C51.2 214.498 54.4 215.998 57.4 217.931V193.631C57.4 192.364 57.6 191.198 58 190.131C58.4 189.064 58.9667 188.131 59.7 187.331C60.5 186.531 61.4 185.898 62.4 185.431C63.4 185.031 64.5333 184.831 65.8 184.831C67 184.831 68.1 185.031 69.1 185.431C70.1667 185.898 71.0667 186.531 71.8 187.331C72.5333 188.131 73.1333 189.064 73.6 190.131C74.0667 191.198 74.3 192.364 74.3 193.631V249.231ZM57.4 248.931C57.4 246.131 56.8667 243.498 55.8 241.031C54.7333 238.564 53.2667 236.431 51.4 234.631C49.5333 232.764 47.4 231.298 45 230.231C42.5333 229.164 39.9 228.631 37.1 228.631C34.3 228.631 31.6667 229.164 29.2 230.231C26.8 231.298 24.6667 232.764 22.8 234.631C20.9333 236.431 19.5 238.564 18.5 241.031C17.4333 243.498 16.9 246.131 16.9 248.931C16.9 251.664 17.4333 254.264 18.5 256.731C19.5 259.198 20.9333 261.331 22.8 263.131C24.6 264.998 26.7333 266.464 29.2 267.531C31.6667 268.598 34.3 269.131 37.1 269.131C39.9 269.131 42.5333 268.598 45 267.531C47.4 266.464 49.5333 264.998 51.4 263.131C53.2667 261.331 54.7333 259.198 55.8 256.731C56.8667 254.264 57.4 251.664 57.4 248.931ZM91 195.531C91 194.264 91.2667 193.031 91.8 191.831C92.2667 190.698 92.9 189.731 93.7 188.931C94.5667 188.064 95.5667 187.398 96.7 186.931C97.8333 186.464 99.0333 186.231 100.3 186.231C101.567 186.231 102.767 186.464 103.9 186.931C105.033 187.398 106.033 188.064 106.9 188.931C107.767 189.731 108.433 190.698 108.9 191.831C109.367 193.031 109.6 194.264 109.6 195.531C109.6 196.798 109.367 197.964 108.9 199.031C108.433 200.164 107.767 201.164 106.9 202.031C106.033 202.831 105.033 203.464 103.9 203.931C102.767 204.464 101.567 204.731 100.3 204.731C99.0333 204.731 97.8333 204.464 96.7 203.931C95.5667 203.464 94.5667 202.831 93.7 202.031C92.9 201.164 92.2667 200.164 91.8 199.031C91.2667 197.964 91 196.798 91 195.531ZM108.8 276.631C108.8 277.831 108.567 278.931 108.1 279.931C107.7 280.998 107.1 281.898 106.3 282.631C105.567 283.364 104.7 283.964 103.7 284.431C102.7 284.831 101.6 285.031 100.4 285.031C99.2667 285.031 98.1667 284.831 97.1 284.431C96.0333 283.964 95.1333 283.364 94.4 282.631C93.6 281.898 92.9667 280.998 92.5 279.931C92.1 278.931 91.9 277.831 91.9 276.631V221.131C91.9 219.998 92.1333 218.931 92.6 217.931C93.0667 216.864 93.6667 215.964 94.4 215.231C95.2 214.431 96.1333 213.831 97.2 213.431C98.2 212.964 99.3 212.731 100.5 212.731C101.7 212.731 102.8 212.964 103.8 213.431C104.8 213.831 105.667 214.431 106.4 215.231C107.133 215.964 107.733 216.864 108.2 217.931C108.6 218.931 108.8 219.998 108.8 221.131V276.631ZM121.3 248.831C121.3 243.698 122.3 238.898 124.3 234.431C126.3 229.964 128.967 226.031 132.3 222.631C135.7 219.231 139.633 216.564 144.1 214.631C148.633 212.698 153.433 211.731 158.5 211.731C163.633 211.731 168.467 212.698 173 214.631C177.533 216.564 181.467 219.231 184.8 222.631C188.133 226.031 190.767 229.964 192.7 234.431C194.633 238.898 195.6 243.698 195.6 248.831C195.6 253.898 194.633 258.698 192.7 263.231C190.767 267.764 188.133 271.698 184.8 275.031C181.467 278.431 177.533 281.098 173 283.031C168.467 284.964 163.633 285.931 158.5 285.931C153.433 285.931 148.633 284.964 144.1 283.031C139.633 281.098 135.7 278.431 132.3 275.031C128.967 271.698 126.3 267.764 124.3 263.231C122.3 258.698 121.3 253.898 121.3 248.831ZM138.2 248.831C138.2 251.564 138.733 254.164 139.8 256.631C140.867 259.098 142.333 261.264 144.2 263.131C146.067 264.998 148.2 266.431 150.6 267.431C153.067 268.498 155.7 269.031 158.5 269.031C161.3 269.031 163.933 268.498 166.4 267.431C168.867 266.431 171 264.998 172.8 263.131C174.667 261.264 176.1 259.098 177.1 256.631C178.167 254.164 178.7 251.564 178.7 248.831C178.7 246.031 178.167 243.398 177.1 240.931C176.1 238.464 174.667 236.331 172.8 234.531C171 232.731 168.867 231.298 166.4 230.231C163.933 229.164 161.3 228.631 158.5 228.631C155.767 228.631 153.167 229.164 150.7 230.231C148.233 231.298 146.067 232.731 144.2 234.531C142.333 236.331 140.867 238.464 139.8 240.931C138.733 243.398 138.2 246.031 138.2 248.831ZM222.7 276.731C222.7 277.864 222.5 278.931 222.1 279.931C221.7 280.998 221.1 281.898 220.3 282.631C219.567 283.364 218.7 283.931 217.7 284.331C216.7 284.798 215.633 285.031 214.5 285.031C213.3 285.031 212.167 284.798 211.1 284.331C210.033 283.931 209.133 283.364 208.4 282.631C207.6 281.898 206.967 280.998 206.5 279.931C206.033 278.931 205.8 277.864 205.8 276.731V251.531C205.8 246.198 206.833 241.164 208.9 236.431C210.967 231.764 213.767 227.664 217.3 224.131C220.833 220.598 224.967 217.798 229.7 215.731C234.367 213.664 239.367 212.631 244.7 212.631H244.8C247.667 212.631 249.867 213.431 251.4 215.031C252.933 216.631 253.7 218.631 253.7 221.031C253.7 222.231 253.467 223.364 253 224.431C252.533 225.431 251.867 226.331 251 227.131C250.2 227.864 249.267 228.464 248.2 228.931C247.133 229.331 246 229.531 244.8 229.531H244.7C241.767 229.531 238.933 230.098 236.2 231.231C233.533 232.364 231.233 233.931 229.3 235.931C227.3 237.931 225.7 240.231 224.5 242.831C223.3 245.498 222.7 248.331 222.7 251.331V276.731ZM290.4 258.031L308.8 217.831C309.467 216.231 310.5 214.964 311.9 214.031C313.3 213.164 314.8 212.731 316.4 212.731C317.667 212.731 318.833 212.998 319.9 213.531C320.967 213.998 321.9 214.631 322.7 215.431C323.433 216.231 324 217.164 324.4 218.231C324.8 219.231 325 220.298 325 221.431C325 222.564 324.733 223.664 324.2 224.731L298.2 279.931C297.4 281.664 296.267 282.931 294.8 283.731C293.4 284.531 292.067 284.964 290.8 285.031C288.867 285.031 287.2 284.564 285.8 283.631C284.4 282.698 283.333 281.464 282.6 279.931L256.6 224.731C256.067 223.598 255.8 222.464 255.8 221.331C255.8 220.198 256 219.131 256.4 218.131C256.8 217.131 257.367 216.198 258.1 215.331C258.9 214.531 259.8 213.898 260.8 213.431C261.4 213.164 261.967 212.964 262.5 212.831C263.1 212.698 263.7 212.631 264.3 212.631C265.9 212.631 267.4 213.098 268.8 214.031C270.2 214.898 271.267 216.131 272 217.731L290.4 258.031ZM333.3 195.531C333.3 194.198 333.567 192.964 334.1 191.831C334.567 190.698 335.2 189.731 336 188.931C336.867 188.064 337.867 187.398 339 186.931C340.133 186.464 341.333 186.231 342.6 186.231C343.867 186.231 345.067 186.464 346.2 186.931C347.333 187.398 348.333 188.064 349.2 188.931C350.067 189.731 350.733 190.698 351.2 191.831C351.667 192.964 351.9 194.198 351.9 195.531C351.9 196.798 351.667 197.964 351.2 199.031C350.733 200.164 350.067 201.131 349.2 201.931C348.333 202.798 347.333 203.464 346.2 203.931C345.067 204.464 343.867 204.731 342.6 204.731C341.333 204.731 340.133 204.464 339 203.931C337.867 203.464 336.867 202.798 336 201.931C335.2 201.131 334.567 200.164 334.1 199.031C333.567 197.964 333.3 196.798 333.3 195.531ZM351.1 276.631C351.1 277.764 350.867 278.864 350.4 279.931C350 280.998 349.4 281.898 348.6 282.631C347.867 283.364 347 283.964 346 284.431C345 284.831 343.9 285.031 342.7 285.031C341.5 285.031 340.4 284.831 339.4 284.431C338.333 283.964 337.433 283.364 336.7 282.631C335.9 281.898 335.267 280.998 334.8 279.931C334.4 278.864 334.2 277.764 334.2 276.631V221.131C334.2 219.998 334.433 218.931 334.9 217.931C335.367 216.864 335.967 215.964 336.7 215.231C337.5 214.431 338.433 213.798 339.5 213.331C340.5 212.931 341.6 212.731 342.8 212.731C344 212.731 345.1 212.931 346.1 213.331C347.1 213.798 347.967 214.431 348.7 215.231C349.433 215.964 350.033 216.864 350.5 217.931C350.9 218.931 351.1 219.998 351.1 221.131V276.631ZM160.1 34.3309C155.1 21.2309 161.7 6.63095 174.8 1.63095C179.1 0.0309516 183.6 -0.369067 187.8 0.330933C179.8 5.73093 174.6 14.9309 174.6 25.3309V53.5309C172.267 53.5976 169.933 53.7976 167.6 54.131L160.1 34.3309ZM213.4 116.031V25.3309C213.4 20.6309 209.6 16.9309 204.9 16.9309C200.3 16.9309 196.5 20.6309 196.5 25.3309V79.5309L185.8 76.631C182.6 75.831 179.3 75.3309 176 75.3309C155.4 75.3309 138.6 92.131 138.6 112.731C138.6 133.231 155.4 150.031 176 150.031C180.7 150.031 184.4 153.831 184.4 158.431C184.4 163.131 180.7 166.931 176 166.931C146 166.931 121.7 142.631 121.7 112.731C121.7 82.831 146 58.5309 176 58.5309C177.2 58.5309 178.4 58.5643 179.6 58.631V25.3309C179.6 11.3309 190.9 0.0309455 204.9 0.0309455C218.9 0.0309455 230.3 11.3309 230.3 25.3309V116.031C230.3 120.731 226.5 124.531 221.8 124.531C217.2 124.531 213.4 120.731 213.4 116.031ZM166.7 112.731C166.7 111.464 166.933 110.264 167.4 109.131C167.933 107.998 168.6 106.998 169.4 106.131C170.2 105.331 171.2 104.664 172.4 104.131C173.533 103.664 174.7 103.431 175.9 103.431C177.167 103.431 178.367 103.664 179.5 104.131C180.633 104.664 181.633 105.331 182.5 106.131C183.367 106.998 184.067 107.998 184.6 109.131C185.067 110.264 185.3 111.464 185.3 112.731C185.3 113.998 185.067 115.198 184.6 116.331C184.067 117.464 183.367 118.431 182.5 119.231C181.633 120.031 180.633 120.698 179.5 121.231C178.367 121.698 177.167 121.931 175.9 121.931C174.7 121.931 173.533 121.698 172.4 121.231C171.2 120.698 170.2 120.031 169.4 119.231C168.6 118.431 167.933 117.464 167.4 116.331C166.933 115.198 166.7 113.998 166.7 112.731Z" fill="white"/>
</svg>
