<svg id="m6iu0mzq45859810" viewBox="0 0 512 512" xmlns="http://www.w3.org/2000/svg" xmlns:xlink="http://www.w3.org/1999/xlink"><g id="m6iu0mzq45859810_translate"><g transform="matrix(1,0,0,1,0,0)"><g id="m6iu0mzq45859810" opacity="1" style="mix-blend-mode:normal"><g><g><path id="m6iu0mzq45859810_fill_path" d="M0.01,0h511.98c0.00552,0 0.01,0.00448 0.01,0.01v511.98c0,0.00552 -0.00448,0.01 -0.01,0.01h-511.98c-0.00552,0 -0.01,-0.00448 -0.01,-0.01v-511.98c0,-0.00552 0.00448,-0.01 0.01,-0.01z" fill-rule="nonzero" fill="rgb(255, 255, 255)" fill-opacity="1" style="mix-blend-mode:normal"></path><g id="m6iu0mzs87893157_translate"><g transform="matrix(0.992546151641322,-0.12186934340514748,0.12186934340514748,0.992546151641322,203.8662982850026,94.7504432229859)"><g id="m6iu0mzs87893157" opacity="1" style="mix-blend-mode:normal"><g><g><path id="m6iu0mzs87893157_fill_path" d="M3.50655,71.7344c-10.46825,-27.2707 3.33088,-57.8186 30.36235,-68.195c27.2707,-10.46825 57.7267,3.09167 68.3421,30.0313l29.063,75.7123l-102.3384,40.619c-0.3889,-3.947 -0.6358,-8.466 -0.6358,-13.579z" fill-rule="evenodd" fill="rgb(33, 90, 127)" fill-opacity="1" style="mix-blend-mode:normal"></path></g></g></g></g></g><g id="m6iu0mzy46925239_translate"><g transform="matrix(0.9961946980917455,0.08715574274765817,-0.08715574274765817,0.9961946980917455,159.62829504249268,72.7319633281758)"><g id="m6iu0mzy46925239" opacity="1" style="mix-blend-mode:normal"><g><g><g id="m6iu0mzz33704330_translate"><g transform="matrix(1,0,0,1,102.3799,234.4562)"><g id="m6iu0mzz33704330" opacity="1" style="mix-blend-mode:normal"><g><g><path id="m6iu0mzz33704330_fill_path" d="M0.01,0h21.2201c0.00552,0 0.01,0.00448 0.01,0.01v234.4362c0,0.00552 -0.00448,0.01 -0.01,0.01h-21.2201c-0.00552,0 -0.01,-0.00448 -0.01,-0.01v-234.4362c0,-0.00552 0.00448,-0.01 0.01,-0.01z" fill-rule="nonzero" fill="rgb(255, 255, 255)" fill-opacity="1" style="mix-blend-mode:normal"></path></g></g></g></g></g><g id="m6iu0n0665593603_translate"><g transform="matrix(1,0,0,1,0,0)"><g id="m6iu0n0665593603" opacity="1" style="mix-blend-mode:normal"><g><g><g id="m6iu0n0760465455_translate"><g transform="matrix(1,0,0,1,0,0)"><g id="m6iu0n0760465455" opacity="1" style="mix-blend-mode:normal"><g><g><path id="m6iu0n0760465455_fill_path" d="M172.95921,0c-28.95465,0 -52.78459,23.5737 -52.78459,52.78459v69.18368c-2.56236,-0.25624 -4.86849,-0.25623 -7.43084,-0.25623c-62.26531,0 -112.74378,50.47847 -112.74378,112.74378c0,62.26531 50.47847,112.74378 112.74378,112.74378c9.73696,0 17.68028,-7.9433 17.68028,-17.68026c0,-9.73696 -7.94332,-17.6803 -17.68028,-17.6803c-42.79139,0 -77.63947,-34.84806 -77.63947,-77.63945c0,-42.79139 34.84808,-77.63947 77.63947,-77.63947c6.91837,0 13.83674,1.02495 20.49887,2.8186l22.03628,5.89342v-112.74378c0,-9.73696 7.94332,-17.68027 17.68028,-17.68027c9.73696,0 17.68028,7.94331 17.68028,17.68027v188.84582c0,9.73696 7.94332,17.68028 17.68028,17.68028c9.73696,0 17.68026,-7.94332 17.68026,-17.68028v-188.84582c-0.25624,-28.95465 -23.82993,-52.52835 -53.04082,-52.52835zM126.58052,220.61907c-1.79365,-1.79365 -3.84354,-3.07483 -6.14966,-4.09977c-2.30612,-1.02494 -4.86849,-1.53741 -7.43084,-1.53741c-2.56236,0 -5.12471,0.51247 -7.43083,1.53741c-2.30612,1.02494 -4.35601,2.30612 -6.14966,4.09977c-1.79365,1.79365 -3.07483,3.84354 -4.09977,6.14966c-1.02494,2.30612 -1.53742,4.86848 -1.53742,7.68708c0,2.56236 0.51248,5.12472 1.53742,7.43084c1.02494,2.30612 2.30612,4.35601 4.09977,6.14966c1.79365,1.79365 3.84354,3.07483 6.14966,4.09977c2.30612,1.02494 4.86848,1.53741 7.43083,1.53741c2.56236,0 5.12472,-0.51247 7.43084,-1.53741c2.30612,-1.02494 4.35601,-2.30612 6.14966,-4.09977c1.79365,-1.79365 3.07483,-3.84354 4.09977,-6.14966c1.02494,-2.30612 1.53741,-4.86849 1.53741,-7.43084c0,-2.81859 -0.51247,-5.12472 -1.53741,-7.68708c-1.02494,-2.30612 -2.30612,-4.35601 -4.09977,-6.14966z" fill-rule="nonzero" fill="rgb(33, 90, 127)" fill-opacity="1" style="mix-blend-mode:normal"></path><defs><clipPath id="m6iu0n0760465455_stroke_clip_path" clipPathUnits="userSpaceOnUse"><path id="m6iu0n0760465455_stroke_path" d="M-10.2494,-10.2494 H236.2494 V357.44899999999996 H-10.2494 Z M172.95921,0c-28.95465,0 -52.78459,23.5737 -52.78459,52.78459v69.18368c-2.56236,-0.25624 -4.86849,-0.25623 -7.43084,-0.25623c-62.26531,0 -112.74378,50.47847 -112.74378,112.74378c0,62.26531 50.47847,112.74378 112.74378,112.74378c9.73696,0 17.68028,-7.9433 17.68028,-17.68026c0,-9.73696 -7.94332,-17.6803 -17.68028,-17.6803c-42.79139,0 -77.63947,-34.84806 -77.63947,-77.63945c0,-42.79139 34.84808,-77.63947 77.63947,-77.63947c6.91837,0 13.83674,1.02495 20.49887,2.8186l22.03628,5.89342v-112.74378c0,-9.73696 7.94332,-17.68027 17.68028,-17.68027c9.73696,0 17.68028,7.94331 17.68028,17.68027v188.84582c0,9.73696 7.94332,17.68028 17.68028,17.68028c9.73696,0 17.68026,-7.94332 17.68026,-17.68028v-188.84582c-0.25624,-28.95465 -23.82993,-52.52835 -53.04082,-52.52835zM126.58052,220.61907c-1.79365,-1.79365 -3.84354,-3.07483 -6.14966,-4.09977c-2.30612,-1.02494 -4.86849,-1.53741 -7.43084,-1.53741c-2.56236,0 -5.12471,0.51247 -7.43083,1.53741c-2.30612,1.02494 -4.35601,2.30612 -6.14966,4.09977c-1.79365,1.79365 -3.07483,3.84354 -4.09977,6.14966c-1.02494,2.30612 -1.53742,4.86848 -1.53742,7.68708c0,2.56236 0.51248,5.12472 1.53742,7.43084c1.02494,2.30612 2.30612,4.35601 4.09977,6.14966c1.79365,1.79365 3.84354,3.07483 6.14966,4.09977c2.30612,1.02494 4.86848,1.53741 7.43083,1.53741c2.56236,0 5.12472,-0.51247 7.43084,-1.53741c2.30612,-1.02494 4.35601,-2.30612 6.14966,-4.09977c1.79365,-1.79365 3.07483,-3.84354 4.09977,-6.14966c1.02494,-2.30612 1.53741,-4.86849 1.53741,-7.43084c0,-2.81859 -0.51247,-5.12472 -1.53741,-7.68708c-1.02494,-2.30612 -2.30612,-4.35601 -4.09977,-6.14966z" clip-rule="evenodd"></path></clipPath></defs><g style="mix-blend-mode:normal"><g clip-path="url(#m6iu0n0760465455_stroke_clip_path)"><path id="m6iu0n0760465455_stroke_path" d="M172.95921,0c-28.95465,0 -52.78459,23.5737 -52.78459,52.78459v69.18368c-2.56236,-0.25624 -4.86849,-0.25623 -7.43084,-0.25623c-62.26531,0 -112.74378,50.47847 -112.74378,112.74378c0,62.26531 50.47847,112.74378 112.74378,112.74378c9.73696,0 17.68028,-7.9433 17.68028,-17.68026c0,-9.73696 -7.94332,-17.6803 -17.68028,-17.6803c-42.79139,0 -77.63947,-34.84806 -77.63947,-77.63945c0,-42.79139 34.84808,-77.63947 77.63947,-77.63947c6.91837,0 13.83674,1.02495 20.49887,2.8186l22.03628,5.89342v-112.74378c0,-9.73696 7.94332,-17.68027 17.68028,-17.68027c9.73696,0 17.68028,7.94331 17.68028,17.68027v188.84582c0,9.73696 7.94332,17.68028 17.68028,17.68028c9.73696,0 17.68026,-7.94332 17.68026,-17.68028v-188.84582c-0.25624,-28.95465 -23.82993,-52.52835 -53.04082,-52.52835zM126.58052,220.61907c-1.79365,-1.79365 -3.84354,-3.07483 -6.14966,-4.09977c-2.30612,-1.02494 -4.86849,-1.53741 -7.43084,-1.53741c-2.56236,0 -5.12471,0.51247 -7.43083,1.53741c-2.30612,1.02494 -4.35601,2.30612 -6.14966,4.09977c-1.79365,1.79365 -3.07483,3.84354 -4.09977,6.14966c-1.02494,2.30612 -1.53742,4.86848 -1.53742,7.68708c0,2.56236 0.51248,5.12472 1.53742,7.43084c1.02494,2.30612 2.30612,4.35601 4.09977,6.14966c1.79365,1.79365 3.84354,3.07483 6.14966,4.09977c2.30612,1.02494 4.86848,1.53741 7.43083,1.53741c2.56236,0 5.12472,-0.51247 7.43084,-1.53741c2.30612,-1.02494 4.35601,-2.30612 6.14966,-4.09977c1.79365,-1.79365 3.07483,-3.84354 4.09977,-6.14966c1.02494,-2.30612 1.53741,-4.86849 1.53741,-7.43084c0,-2.81859 -0.51247,-5.12472 -1.53741,-7.68708c-1.02494,-2.30612 -2.30612,-4.35601 -4.09977,-6.14966z" fill="none" stroke="rgb(255, 255, 255)" stroke-width="20.4988" stroke-linecap="butt" stroke-linejoin="miter" stroke-dasharray="0 0" stroke-opacity="1"></path><defs><mask id="m6iu0n0760465455_gradient_mask"></mask></defs><rect x="-246.4988" y="-367.6984" width="739.4964" height="1103.0952" fill="url(#m6iu0n0760465455ps0)" mask="url(#m6iu0n0760465455_gradient_mask)"></rect></g></g></g></g></g></g></g></g></g></g></g></g><g id="m6iu0n0k11268816_translate"><g transform="matrix(1,0,0,1,161.7118,44.8756)"><g id="m6iu0n0k11268816" opacity="1" style="mix-blend-mode:normal"><g><g><path id="m6iu0n0k11268816_fill_path" d="M0.01,0h20.4393c0.00552,0 0.01,0.00448 0.01,0.01v126.027c0,0.00552 -0.00448,0.01 -0.01,0.01h-20.4393c-0.00552,0 -0.01,-0.00448 -0.01,-0.01v-126.027c0,-0.00552 0.00448,-0.01 0.01,-0.01z" fill-rule="nonzero" fill="rgb(255, 255, 255)" fill-opacity="1" style="mix-blend-mode:normal"></path></g></g></g></g></g></g></g></g></g></g><g id="m6iu0n0r08052489_translate"><g transform="matrix(1,0,0,1,231.9388,293.4543)"><g id="m6iu0n0r08052489" opacity="0" style="mix-blend-mode:normal"><g><g><path id="m6iu0n0r08052489_fill_path" d="M23.06123,0c-12.81179,0 -23.06123,10.24943 -23.06123,23.06123c0,2.04989 1.79365,3.84354 3.84354,3.84354c2.04989,0 3.84354,-1.79365 3.84354,-3.84354c0,-8.45578 6.91837,-15.37415 15.37415,-15.37415c8.45578,0 15.37415,6.91837 15.37415,15.37415c0,2.04989 1.79365,3.84354 3.84354,3.84354c2.04989,0 3.84353,-1.79365 3.84353,-3.84354c0,-12.55556 -10.24943,-23.06123 -23.06123,-23.06123z" fill-rule="nonzero" fill="rgb(33, 90, 127)" fill-opacity="1" style="mix-blend-mode:normal"></path><defs><clipPath id="m6iu0n0r08052489_stroke_clip_path" clipPathUnits="userSpaceOnUse"><path id="m6iu0n0r08052489_stroke_path" d="M-23.0612,-23.0612 H69.1837 V49.966 H-23.0612 Z M23.06123,0c-12.81179,0 -23.06123,10.24943 -23.06123,23.06123c0,2.04989 1.79365,3.84354 3.84354,3.84354c2.04989,0 3.84354,-1.79365 3.84354,-3.84354c0,-8.45578 6.91837,-15.37415 15.37415,-15.37415c8.45578,0 15.37415,6.91837 15.37415,15.37415c0,2.04989 1.79365,3.84354 3.84354,3.84354c2.04989,0 3.84353,-1.79365 3.84353,-3.84354c0,-12.55556 -10.24943,-23.06123 -23.06123,-23.06123z" clip-rule="evenodd"></path></clipPath></defs><g style="mix-blend-mode:normal"><g clip-path="url(#m6iu0n0r08052489_stroke_clip_path)"><path id="m6iu0n0r08052489_stroke_path" d="M23.06123,0c-12.81179,0 -23.06123,10.24943 -23.06123,23.06123c0,2.04989 1.79365,3.84354 3.84354,3.84354c2.04989,0 3.84354,-1.79365 3.84354,-3.84354c0,-8.45578 6.91837,-15.37415 15.37415,-15.37415c8.45578,0 15.37415,6.91837 15.37415,15.37415c0,2.04989 1.79365,3.84354 3.84354,3.84354c2.04989,0 3.84353,-1.79365 3.84353,-3.84354c0,-12.55556 -10.24943,-23.06123 -23.06123,-23.06123z" fill="none" stroke="rgb(255, 255, 255)" stroke-width="46.1224" stroke-linecap="butt" stroke-linejoin="miter" stroke-dasharray="0 0" stroke-opacity="1"></path><defs><mask id="m6iu0n0r08052489_gradient_mask"></mask></defs><rect x="-92.2449" y="-73.0272" width="276.7347" height="219.08159999999998" fill="url(#m6iu0n0r08052489ps0)" mask="url(#m6iu0n0r08052489_gradient_mask)"></rect></g></g></g></g></g></g></g></g></g></g></g></g><animateTransform href="#m6iu0mzs87893157" attributeName="transform" type="rotate" values="0 110.9146 126.6532;0 110.9146 126.6532;7 110.9146 126.6532;7 110.9146 126.6532;0 110.9146 126.6532" dur="5s" repeatCount="indefinite" calcMode="spline" keyTimes="0;0.01;0.3;0.59;1" keySplines="0.5 0.35 0.15 1;0.5 0.35 0.15 1;0.5 0.35 0.15 1;0.5 0.35 0.15 1" additive="sum" fill="freeze"></animateTransform><animateTransform href="#m6iu0mzy46925239" attributeName="transform" type="rotate" values="0 95.4744 198.0935;0 95.4744 198.0935;-8.3423 95.4744 198.0935;-5 95.4744 198.0935;-5 95.4744 198.0935;0 95.4744 198.0935;0 95.4744 198.0935" dur="5s" repeatCount="indefinite" calcMode="spline" keyTimes="0;0.01;0.16;0.3;0.63;0.99;1" keySplines="0.5 0.35 0.15 1;0.5 0.35 0.15 1;0.5 0.35 0.15 1;0.5 0.35 0.15 1;0.5 0.35 0.15 1;0.5 0.35 0.15 1" additive="sum" fill="freeze"></animateTransform><animate href="#m6iu0n0r08052489" attributeName="opacity" values="0;0;1;1;0;0" dur="5s" repeatCount="indefinite" calcMode="spline" keyTimes="0;0.21;0.22;0.24;0.25;1" keySplines="0.5 0.35 0.15 1;0.5 0.35 0.15 1;0.5 0.35 0.15 1;0.5 0.35 0.15 1;0.5 0.35 0.15 1" additive="replace" fill="freeze"></animate></svg>