<?xml version="1.0" encoding="utf-8"?>
<!-- Generator: Adobe Illustrator 23.0.0, SVG Export Plug-In . SVG Version: 6.00 Build 0)  -->
<svg version="1.1" id="Capa_1" xmlns="http://www.w3.org/2000/svg" xmlns:xlink="http://www.w3.org/1999/xlink" x="0px" y="0px"
	 viewBox="0 0 190 25" style="enable-background:new 0 0 190 25;" xml:space="preserve">
<style type="text/css">
	.st0{fill:#004463;}
</style>
<g>
	<path class="st0" d="M3.28,19.17c-0.35,0-0.65-0.12-0.89-0.36c-0.24-0.24-0.36-0.53-0.36-0.89V1.71c0-0.37,0.12-0.67,0.36-0.9
		c0.24-0.23,0.54-0.35,0.89-0.35h4.34c1.37,0,2.62,0.23,3.75,0.68s2.1,1.1,2.94,1.94c0.83,0.84,1.47,1.82,1.92,2.96
		c0.45,1.13,0.67,2.39,0.67,3.76s-0.22,2.63-0.67,3.77c-0.45,1.14-1.09,2.13-1.92,2.97c-0.83,0.84-1.81,1.49-2.94,1.94
		c-1.13,0.46-2.38,0.68-3.75,0.68H3.28z M4.52,16.97h3.09c1.34,0,2.53-0.31,3.56-0.92c1.03-0.62,1.84-1.46,2.43-2.54
		c0.59-1.08,0.89-2.31,0.89-3.7c0-1.41-0.3-2.64-0.89-3.71c-0.59-1.07-1.4-1.91-2.43-2.52c-1.03-0.61-2.22-0.91-3.56-0.91H4.52
		V16.97z"/>
	<path class="st0" d="M22.01,3.94c-0.43,0-0.8-0.16-1.11-0.47c-0.31-0.31-0.47-0.68-0.47-1.11c0-0.43,0.16-0.8,0.47-1.11
		c0.31-0.31,0.68-0.47,1.11-0.47c0.43,0,0.8,0.16,1.11,0.47c0.31,0.31,0.47,0.68,0.47,1.11c0,0.43-0.16,0.8-0.47,1.11
		C22.81,3.78,22.44,3.94,22.01,3.94z M22.01,19.17c-0.35,0-0.64-0.12-0.87-0.35c-0.23-0.23-0.35-0.52-0.35-0.87V7.29
		c0-0.37,0.12-0.66,0.35-0.89c0.23-0.22,0.52-0.34,0.87-0.34c0.37,0,0.66,0.11,0.89,0.34c0.22,0.22,0.34,0.52,0.34,0.89v10.66
		c0,0.35-0.11,0.64-0.34,0.87C22.68,19.06,22.38,19.17,22.01,19.17z"/>
	<path class="st0" d="M33.25,19.27c-1.17,0-2.21-0.29-3.14-0.87c-0.93-0.58-1.66-1.37-2.19-2.37c-0.54-1-0.8-2.13-0.8-3.39
		s0.29-2.4,0.87-3.4c0.58-1.01,1.37-1.8,2.37-2.38c1-0.58,2.12-0.87,3.37-0.87c1.25,0,2.36,0.29,3.35,0.87s1.78,1.38,2.36,2.38
		c0.58,1.01,0.87,2.14,0.87,3.4h-0.93c0,1.26-0.27,2.39-0.8,3.39c-0.54,1-1.27,1.79-2.19,2.37C35.46,18.98,34.41,19.27,33.25,19.27z
		 M33.73,17.11c0.81,0,1.54-0.19,2.18-0.59c0.64-0.39,1.14-0.93,1.51-1.6c0.37-0.68,0.55-1.44,0.55-2.29c0-0.86-0.18-1.63-0.55-2.31
		c-0.37-0.68-0.87-1.21-1.51-1.6c-0.64-0.39-1.37-0.59-2.18-0.59c-0.8,0-1.52,0.2-2.17,0.59c-0.65,0.39-1.16,0.93-1.53,1.6
		c-0.38,0.68-0.56,1.45-0.56,2.31c0,0.85,0.19,1.61,0.56,2.29c0.37,0.68,0.89,1.21,1.53,1.6C32.21,16.92,32.93,17.11,33.73,17.11z
		 M39.09,19.2c-0.35,0-0.64-0.12-0.87-0.35c-0.23-0.23-0.35-0.52-0.35-0.87v-3.67l0.46-2.54l1.99,0.86v5.34
		c0,0.35-0.12,0.64-0.35,0.87C39.74,19.08,39.45,19.2,39.09,19.2z"/>
	<path class="st0" d="M45.18,19.2c-0.35,0-0.64-0.12-0.87-0.35c-0.23-0.23-0.35-0.52-0.35-0.87V7.29c0-0.37,0.12-0.66,0.35-0.89
		c0.23-0.22,0.52-0.34,0.87-0.34c0.37,0,0.66,0.11,0.89,0.34c0.22,0.22,0.34,0.52,0.34,0.89v10.69c0,0.35-0.11,0.64-0.34,0.87
		C45.84,19.08,45.55,19.2,45.18,19.2z M55.03,19.2c-0.35,0-0.64-0.12-0.87-0.35c-0.23-0.23-0.35-0.52-0.35-0.87v-5.89
		c0-0.91-0.17-1.65-0.5-2.23c-0.34-0.58-0.79-1-1.35-1.28C51.38,8.29,50.73,8.15,50,8.15c-0.67,0-1.28,0.14-1.82,0.41
		c-0.54,0.27-0.97,0.63-1.29,1.09c-0.32,0.46-0.48,0.98-0.48,1.57h-1.51c0-1.01,0.24-1.9,0.73-2.7c0.49-0.79,1.15-1.42,2-1.88
		c0.85-0.46,1.8-0.7,2.85-0.7c1.1,0,2.09,0.24,2.96,0.71c0.87,0.47,1.56,1.16,2.06,2.07s0.75,2.03,0.75,3.35v5.89
		c0,0.35-0.12,0.64-0.35,0.87C55.67,19.08,55.38,19.2,55.03,19.2z"/>
	<path class="st0" d="M65.76,19.27c-1.17,0-2.21-0.29-3.14-0.87c-0.93-0.58-1.66-1.37-2.19-2.37c-0.54-1-0.8-2.13-0.8-3.39
		s0.29-2.4,0.87-3.4c0.58-1.01,1.37-1.8,2.37-2.38s2.12-0.87,3.37-0.87c1.25,0,2.36,0.29,3.35,0.87c0.99,0.58,1.78,1.38,2.36,2.38
		c0.58,1.01,0.87,2.14,0.87,3.4h-0.93c0,1.26-0.27,2.39-0.8,3.39c-0.54,1-1.27,1.79-2.19,2.37C67.97,18.98,66.93,19.27,65.76,19.27z
		 M66.24,17.11c0.81,0,1.54-0.19,2.18-0.59c0.64-0.39,1.14-0.93,1.51-1.6s0.55-1.44,0.55-2.29c0-0.86-0.18-1.63-0.55-2.31
		c-0.37-0.68-0.87-1.21-1.51-1.6c-0.64-0.39-1.37-0.59-2.18-0.59c-0.8,0-1.52,0.2-2.17,0.59c-0.65,0.39-1.16,0.93-1.53,1.6
		c-0.38,0.68-0.56,1.45-0.56,2.31c0,0.85,0.19,1.61,0.56,2.29c0.37,0.68,0.89,1.21,1.53,1.6C64.72,16.92,65.44,17.11,66.24,17.11z
		 M71.61,19.2c-0.35,0-0.64-0.12-0.87-0.35c-0.23-0.23-0.35-0.52-0.35-0.87v-3.67l0.46-2.54l1.99,0.86v5.34
		c0,0.35-0.12,0.64-0.35,0.87C72.25,19.08,71.96,19.2,71.61,19.2z"/>
	<path class="st0" d="M92.38,19.41c-1.41,0-2.69-0.24-3.86-0.71c-1.17-0.47-2.17-1.13-3.01-1.99c-0.84-0.85-1.49-1.87-1.95-3.04
		c-0.46-1.17-0.7-2.46-0.7-3.87s0.23-2.69,0.7-3.86c0.46-1.17,1.11-2.18,1.95-3.03c0.84-0.85,1.84-1.52,3.01-1.99
		c1.17-0.47,2.45-0.71,3.86-0.71c1.4,0,2.69,0.24,3.84,0.71c1.16,0.47,2.16,1.13,3.01,1.99c0.85,0.85,1.5,1.86,1.97,3.03
		c0.46,1.17,0.69,2.45,0.69,3.86s-0.23,2.7-0.69,3.87c-0.46,1.17-1.12,2.19-1.97,3.04c-0.85,0.85-1.85,1.52-3.01,1.99
		C95.06,19.18,93.78,19.41,92.38,19.41z M92.38,17.16c1.04,0,1.99-0.19,2.86-0.56c0.87-0.38,1.63-0.89,2.26-1.56
		c0.64-0.66,1.13-1.44,1.47-2.34c0.34-0.89,0.52-1.86,0.52-2.9s-0.17-2-0.52-2.9c-0.34-0.89-0.83-1.67-1.47-2.34
		c-0.64-0.66-1.39-1.18-2.26-1.55c-0.87-0.37-1.82-0.55-2.86-0.55c-1.04,0-1.99,0.18-2.86,0.55s-1.62,0.88-2.25,1.55
		c-0.63,0.66-1.12,1.44-1.47,2.34c-0.35,0.89-0.53,1.86-0.53,2.9s0.18,2,0.53,2.9c0.35,0.89,0.84,1.67,1.47,2.34
		c0.63,0.66,1.38,1.18,2.25,1.56S91.34,17.16,92.38,17.16z"/>
	<path class="st0" d="M106.75,19.17c-0.38,0-0.68-0.1-0.89-0.3c-0.21-0.2-0.31-0.5-0.31-0.9V7.27c0-0.38,0.1-0.68,0.31-0.89
		c0.21-0.21,0.5-0.31,0.89-0.31c0.4,0,0.7,0.1,0.9,0.3c0.2,0.2,0.3,0.5,0.3,0.9v10.71c0,0.38-0.1,0.68-0.3,0.89
		C107.45,19.07,107.15,19.17,106.75,19.17z M106.73,10.98c0-0.96,0.24-1.82,0.71-2.58c0.47-0.76,1.11-1.36,1.9-1.81
		c0.8-0.45,1.68-0.67,2.64-0.67s1.67,0.16,2.14,0.47c0.47,0.31,0.65,0.68,0.54,1.11c-0.05,0.22-0.14,0.4-0.28,0.52
		c-0.14,0.12-0.29,0.2-0.47,0.23c-0.18,0.03-0.37,0.02-0.58-0.02c-1.02-0.21-1.94-0.22-2.75-0.05c-0.81,0.18-1.46,0.5-1.93,0.98
		c-0.47,0.48-0.71,1.09-0.71,1.82H106.73z"/>
	<path class="st0" d="M122.4,19.27c-1.33,0-2.5-0.28-3.53-0.85s-1.84-1.35-2.42-2.35c-0.58-1-0.87-2.14-0.87-3.44
		c0-1.31,0.27-2.46,0.83-3.46c0.55-1,1.31-1.78,2.29-2.35c0.97-0.57,2.09-0.85,3.35-0.85c1.25,0,2.32,0.27,3.21,0.83
		c0.89,0.55,1.58,1.31,2.05,2.28c0.47,0.97,0.71,2.08,0.71,3.34c0,0.3-0.1,0.55-0.31,0.75c-0.21,0.2-0.47,0.3-0.79,0.3h-9.65v-1.92
		h9.58l-0.98,0.67c-0.02-0.8-0.18-1.51-0.48-2.14c-0.3-0.63-0.73-1.13-1.29-1.5c-0.56-0.37-1.24-0.55-2.04-0.55
		c-0.91,0-1.69,0.2-2.34,0.6c-0.65,0.4-1.14,0.95-1.47,1.64c-0.34,0.7-0.5,1.48-0.5,2.36c0,0.88,0.2,1.66,0.6,2.35
		c0.4,0.69,0.95,1.23,1.65,1.63c0.7,0.4,1.51,0.6,2.42,0.6c0.5,0,1-0.09,1.52-0.28c0.52-0.18,0.94-0.39,1.26-0.63
		c0.24-0.18,0.5-0.27,0.78-0.28c0.28-0.01,0.52,0.08,0.73,0.25c0.27,0.24,0.42,0.5,0.43,0.79c0.02,0.29-0.11,0.54-0.38,0.74
		c-0.54,0.43-1.22,0.78-2.02,1.05C123.9,19.13,123.13,19.27,122.4,19.27z"/>
	<path class="st0" d="M127.52,24.78c-0.35,0-0.64-0.12-0.86-0.35c-0.22-0.23-0.34-0.52-0.34-0.87c0-0.37,0.11-0.66,0.34-0.89
		c0.22-0.22,0.51-0.34,0.86-0.34c0.64,0,1.2-0.14,1.68-0.42c0.48-0.28,0.86-0.66,1.14-1.14c0.28-0.48,0.42-1.03,0.42-1.65V7.29
		c0-0.37,0.12-0.66,0.35-0.89c0.23-0.22,0.52-0.34,0.87-0.34c0.37,0,0.66,0.11,0.89,0.34c0.22,0.22,0.34,0.52,0.34,0.89v11.84
		c0,1.1-0.24,2.08-0.73,2.92c-0.49,0.85-1.15,1.51-2,2C129.62,24.53,128.64,24.78,127.52,24.78z M131.98,3.94
		c-0.43,0-0.8-0.16-1.11-0.47c-0.31-0.31-0.47-0.68-0.47-1.11c0-0.43,0.16-0.8,0.47-1.11c0.31-0.31,0.68-0.47,1.11-0.47
		c0.43,0,0.8,0.16,1.11,0.47c0.31,0.31,0.47,0.68,0.47,1.11c0,0.43-0.15,0.8-0.47,1.11C132.78,3.78,132.41,3.94,131.98,3.94z"/>
	<path class="st0" d="M143.26,19.29c-1.1,0-2.09-0.24-2.96-0.71c-0.87-0.47-1.56-1.16-2.06-2.07s-0.75-2.03-0.75-3.35V7.27
		c0-0.35,0.12-0.64,0.35-0.87c0.23-0.23,0.52-0.35,0.88-0.35c0.35,0,0.64,0.12,0.87,0.35c0.23,0.23,0.35,0.52,0.35,0.87v5.89
		c0,0.89,0.17,1.63,0.5,2.22c0.34,0.58,0.79,1.01,1.36,1.29c0.58,0.28,1.22,0.42,1.94,0.42c0.69,0,1.3-0.14,1.83-0.41
		c0.53-0.27,0.96-0.64,1.28-1.1c0.32-0.46,0.48-0.98,0.48-1.56h1.51c0,0.99-0.25,1.89-0.73,2.68c-0.49,0.8-1.15,1.43-1.99,1.89
		C145.29,19.06,144.33,19.29,143.26,19.29z M148.56,19.17c-0.35,0-0.64-0.12-0.87-0.35c-0.23-0.23-0.35-0.52-0.35-0.87V7.27
		c0-0.37,0.12-0.66,0.35-0.89c0.23-0.22,0.52-0.34,0.87-0.34c0.37,0,0.66,0.11,0.89,0.34c0.22,0.22,0.34,0.52,0.34,0.89v10.69
		c0,0.35-0.11,0.64-0.34,0.87C149.22,19.06,148.92,19.17,148.56,19.17z"/>
	<path class="st0" d="M160.25,19.27c-1.33,0-2.5-0.28-3.53-0.85c-1.03-0.57-1.84-1.35-2.42-2.35c-0.58-1-0.88-2.14-0.88-3.44
		c0-1.31,0.27-2.46,0.83-3.46c0.55-1,1.31-1.78,2.29-2.35c0.97-0.57,2.09-0.85,3.35-0.85c1.25,0,2.32,0.27,3.21,0.83
		c0.89,0.55,1.58,1.31,2.05,2.28c0.47,0.97,0.71,2.08,0.71,3.34c0,0.3-0.1,0.55-0.31,0.75c-0.21,0.2-0.47,0.3-0.79,0.3h-9.65v-1.92
		h9.58l-0.98,0.67c-0.02-0.8-0.18-1.51-0.48-2.14c-0.3-0.63-0.73-1.13-1.29-1.5c-0.56-0.37-1.24-0.55-2.04-0.55
		c-0.91,0-1.69,0.2-2.34,0.6c-0.65,0.4-1.14,0.95-1.47,1.64c-0.34,0.7-0.5,1.48-0.5,2.36c0,0.88,0.2,1.66,0.6,2.35
		c0.4,0.69,0.95,1.23,1.65,1.63c0.7,0.4,1.51,0.6,2.42,0.6c0.5,0,1-0.09,1.52-0.28c0.52-0.18,0.94-0.39,1.26-0.63
		c0.24-0.18,0.5-0.27,0.78-0.28c0.28-0.01,0.52,0.08,0.73,0.25c0.27,0.24,0.42,0.5,0.43,0.79s-0.11,0.54-0.38,0.74
		c-0.54,0.43-1.22,0.78-2.03,1.05C161.75,19.13,160.98,19.27,160.25,19.27z"/>
	<path class="st0" d="M172.08,19.17c-0.7,0-1.33-0.19-1.87-0.58c-0.54-0.38-0.97-0.91-1.27-1.57c-0.3-0.66-0.45-1.43-0.45-2.29V1.66
		c0-0.35,0.11-0.64,0.34-0.86c0.22-0.22,0.51-0.34,0.86-0.34c0.35,0,0.64,0.11,0.86,0.34c0.22,0.22,0.34,0.51,0.34,0.86v13.08
		c0,0.59,0.11,1.08,0.34,1.46c0.22,0.38,0.51,0.57,0.86,0.57h0.6c0.32,0,0.58,0.11,0.78,0.34c0.2,0.22,0.3,0.51,0.3,0.86
		c0,0.35-0.15,0.64-0.45,0.86c-0.3,0.22-0.7,0.34-1.17,0.34H172.08z"/>
	<path class="st0" d="M180.9,19.27c-1.17,0-2.21-0.29-3.14-0.87c-0.93-0.58-1.66-1.37-2.19-2.37c-0.53-1-0.8-2.13-0.8-3.39
		s0.29-2.4,0.88-3.4c0.58-1.01,1.37-1.8,2.37-2.38s2.12-0.87,3.37-0.87c1.25,0,2.36,0.29,3.35,0.87s1.78,1.38,2.36,2.38
		s0.88,2.14,0.88,3.4h-0.94c0,1.26-0.27,2.39-0.8,3.39c-0.53,1-1.26,1.79-2.19,2.37C183.11,18.98,182.06,19.27,180.9,19.27z
		 M181.38,17.11c0.81,0,1.54-0.19,2.18-0.59c0.64-0.39,1.14-0.93,1.51-1.6c0.37-0.68,0.55-1.44,0.55-2.29
		c0-0.86-0.19-1.63-0.55-2.31c-0.37-0.68-0.87-1.21-1.51-1.6c-0.64-0.39-1.36-0.59-2.18-0.59c-0.8,0-1.52,0.2-2.17,0.59
		c-0.65,0.39-1.16,0.93-1.53,1.6c-0.37,0.68-0.56,1.45-0.56,2.31c0,0.85,0.19,1.61,0.56,2.29c0.37,0.68,0.89,1.21,1.53,1.6
		C179.86,16.92,180.58,17.11,181.38,17.11z M186.75,19.2c-0.35,0-0.64-0.12-0.88-0.35c-0.23-0.23-0.35-0.52-0.35-0.87v-3.67
		l0.46-2.54l1.99,0.86v5.34c0,0.35-0.12,0.64-0.35,0.87C187.39,19.08,187.1,19.2,186.75,19.2z"/>
</g>
</svg>
